<svg xmlns="http://www.w3.org/2000/svg" width="64" height="64" fill="none"><path fill="#fff" d="m18.785 19.978 11.366 12.024c1.064 1.125 2.997 1.013 4.318-.251 1.322-1.264 1.531-3.2.468-4.325L23.571 15.4c-1.064-1.124-2.997-1.012-4.318.252-1.322 1.264-1.53 3.2-.468 4.325Z"/><path fill="#fff" d="m41.058 15.524-11.7 11.7c-1.094 1.095-.927 3.024.373 4.31 1.3 1.285 3.242 1.44 4.337.345l11.7-11.7c1.094-1.095.927-3.024-.373-4.31-1.3-1.284-3.242-1.44-4.337-.345Z"/><path fill="#fff" d="M27.877 28.49v25.352c0 1.867 1.711 3.38 3.822 3.38 2.112 0 3.823-1.513 3.823-3.38V28.491c0-1.867-1.711-3.38-3.823-3.38-2.11 0-3.822 1.513-3.822 3.38Z"/><path fill="#fff" fill-opacity=".5" d="M14.077 33.257V54.13c0 2.096 1.689 3.796 3.773 3.796s3.773-1.7 3.773-3.796V33.257c0-2.097-1.69-3.796-3.773-3.796-2.084 0-3.773 1.7-3.773 3.796Zm28.3 0V54.13c0 2.096 1.689 3.796 3.773 3.796s3.773-1.7 3.773-3.796V33.257c0-2.097-1.69-3.796-3.773-3.796-2.084 0-3.773 1.7-3.773 3.796Z"/><path fill="#fff" d="M35.79 9.869c0-2.096-1.69-3.796-3.773-3.796-2.084 0-3.774 1.7-3.774 3.796s1.69 3.795 3.774 3.795c2.083 0 3.773-1.7 3.773-3.795Z"/></svg>