<svg xmlns="http://www.w3.org/2000/svg" width="198" height="220" fill="none"><g fill="#8F8F8F" clip-path="url(#a)"><circle cx="1.5" cy="1.5" r="1.5"/><circle cx="12.5" cy="1.5" r="1.5"/><circle cx="23.5" cy="1.5" r="1.5"/><circle cx="34.5" cy="1.5" r="1.5"/><circle cx="45.5" cy="1.5" r="1.5"/><circle cx="56.5" cy="1.5" r="1.5"/><circle cx="67.5" cy="1.5" r="1.5"/><circle cx="78.5" cy="1.5" r="1.5"/><circle cx="89.5" cy="1.5" r="1.5"/><circle cx="100.5" cy="1.5" r="1.5"/><circle cx="111.5" cy="1.5" r="1.5"/><circle cx="122.5" cy="1.5" r="1.5"/><circle cx="133.5" cy="1.5" r="1.5"/><circle cx="144.5" cy="1.5" r="1.5"/><circle cx="155.5" cy="1.5" r="1.5"/><circle cx="166.5" cy="1.5" r="1.5"/><circle cx="177.5" cy="1.5" r="1.5"/><circle cx="188.5" cy="1.5" r="1.5"/><circle cx="1.5" cy="12.5" r="1.5"/><circle cx="12.5" cy="12.5" r="1.5"/><circle cx="23.5" cy="12.5" r="1.5"/><circle cx="34.5" cy="12.5" r="1.5"/><circle cx="45.5" cy="12.5" r="1.5"/><circle cx="56.5" cy="12.5" r="1.5"/><circle cx="67.5" cy="12.5" r="1.5"/><circle cx="78.5" cy="12.5" r="1.5"/><circle cx="89.5" cy="12.5" r="1.5"/><circle cx="100.5" cy="12.5" r="1.5"/><circle cx="111.5" cy="12.5" r="1.5"/><circle cx="122.5" cy="12.5" r="1.5"/><circle cx="133.5" cy="12.5" r="1.5"/><circle cx="144.5" cy="12.5" r="1.5"/><circle cx="155.5" cy="12.5" r="1.5"/><circle cx="166.5" cy="12.5" r="1.5"/><circle cx="177.5" cy="12.5" r="1.5"/><circle cx="188.5" cy="12.5" r="1.5"/><circle cx="1.5" cy="23.5" r="1.5"/><circle cx="12.5" cy="23.5" r="1.5"/><circle cx="23.5" cy="23.5" r="1.5"/><circle cx="34.5" cy="23.5" r="1.5"/><circle cx="45.5" cy="23.5" r="1.5"/><circle cx="56.5" cy="23.5" r="1.5"/><circle cx="67.5" cy="23.5" r="1.5"/><circle cx="78.5" cy="23.5" r="1.5"/><circle cx="89.5" cy="23.5" r="1.5"/><circle cx="100.5" cy="23.5" r="1.5"/><circle cx="111.5" cy="23.5" r="1.5"/><circle cx="122.5" cy="23.5" r="1.5"/><circle cx="133.5" cy="23.5" r="1.5"/><circle cx="144.5" cy="23.5" r="1.5"/><circle cx="155.5" cy="23.5" r="1.5"/><circle cx="166.5" cy="23.5" r="1.5"/><circle cx="177.5" cy="23.5" r="1.5"/><circle cx="188.5" cy="23.5" r="1.5"/><circle cx="1.5" cy="34.5" r="1.5"/><circle cx="12.5" cy="34.5" r="1.5"/><circle cx="23.5" cy="34.5" r="1.5"/><circle cx="34.5" cy="34.5" r="1.5"/><circle cx="45.5" cy="34.5" r="1.5"/><circle cx="56.5" cy="34.5" r="1.5"/><circle cx="67.5" cy="34.5" r="1.5"/><circle cx="78.5" cy="34.5" r="1.5"/><circle cx="89.5" cy="34.5" r="1.5"/><circle cx="100.5" cy="34.5" r="1.5"/><circle cx="111.5" cy="34.5" r="1.5"/><circle cx="122.5" cy="34.5" r="1.5"/><circle cx="133.5" cy="34.5" r="1.5"/><circle cx="144.5" cy="34.5" r="1.5"/><circle cx="155.5" cy="34.5" r="1.5"/><circle cx="166.5" cy="34.5" r="1.5"/><circle cx="177.5" cy="34.5" r="1.5"/><circle cx="188.5" cy="34.5" r="1.5"/><circle cx="1.5" cy="45.5" r="1.5"/><circle cx="12.5" cy="45.5" r="1.5"/><circle cx="23.5" cy="45.5" r="1.5"/><circle cx="34.5" cy="45.5" r="1.5"/><circle cx="45.5" cy="45.5" r="1.5"/><circle cx="56.5" cy="45.5" r="1.5"/><circle cx="67.5" cy="45.5" r="1.5"/><circle cx="78.5" cy="45.5" r="1.5"/><circle cx="89.5" cy="45.5" r="1.5"/><circle cx="100.5" cy="45.5" r="1.5"/><circle cx="111.5" cy="45.5" r="1.5"/><circle cx="122.5" cy="45.5" r="1.5"/><circle cx="133.5" cy="45.5" r="1.5"/><circle cx="144.5" cy="45.5" r="1.5"/><circle cx="155.5" cy="45.5" r="1.5"/><circle cx="166.5" cy="45.5" r="1.5"/><circle cx="177.5" cy="45.5" r="1.5"/><circle cx="188.5" cy="45.5" r="1.5"/><circle cx="1.5" cy="56.5" r="1.5"/><circle cx="12.5" cy="56.5" r="1.5"/><circle cx="23.5" cy="56.5" r="1.5"/><circle cx="34.5" cy="56.5" r="1.5"/><circle cx="45.5" cy="56.5" r="1.5"/><circle cx="56.5" cy="56.5" r="1.5"/><circle cx="67.5" cy="56.5" r="1.5"/><circle cx="78.5" cy="56.5" r="1.5"/><circle cx="89.5" cy="56.5" r="1.5"/><circle cx="100.5" cy="56.5" r="1.5"/><circle cx="111.5" cy="56.5" r="1.5"/><circle cx="122.5" cy="56.5" r="1.5"/><circle cx="133.5" cy="56.5" r="1.5"/><circle cx="144.5" cy="56.5" r="1.5"/><circle cx="155.5" cy="56.5" r="1.5"/><circle cx="166.5" cy="56.5" r="1.5"/><circle cx="177.5" cy="56.5" r="1.5"/><circle cx="188.5" cy="56.5" r="1.5"/><circle cx="1.5" cy="67.5" r="1.5"/><circle cx="12.5" cy="67.5" r="1.5"/><circle cx="23.5" cy="67.5" r="1.5"/><circle cx="34.5" cy="67.5" r="1.5"/><circle cx="45.5" cy="67.5" r="1.5"/><circle cx="56.5" cy="67.5" r="1.5"/><circle cx="67.5" cy="67.5" r="1.5"/><circle cx="78.5" cy="67.5" r="1.5"/><circle cx="89.5" cy="67.5" r="1.5"/><circle cx="100.5" cy="67.5" r="1.5"/><circle cx="111.5" cy="67.5" r="1.5"/><circle cx="122.5" cy="67.5" r="1.5"/><circle cx="133.5" cy="67.5" r="1.5"/><circle cx="144.5" cy="67.5" r="1.5"/><circle cx="155.5" cy="67.5" r="1.5"/><circle cx="166.5" cy="67.5" r="1.5"/><circle cx="177.5" cy="67.5" r="1.5"/><circle cx="188.5" cy="67.5" r="1.5"/><circle cx="1.5" cy="78.5" r="1.5"/><circle cx="12.5" cy="78.5" r="1.5"/><circle cx="23.5" cy="78.5" r="1.5"/><circle cx="34.5" cy="78.5" r="1.5"/><circle cx="45.5" cy="78.5" r="1.5"/><circle cx="56.5" cy="78.5" r="1.5"/><circle cx="67.5" cy="78.5" r="1.5"/><circle cx="78.5" cy="78.5" r="1.5"/><circle cx="89.5" cy="78.5" r="1.5"/><circle cx="100.5" cy="78.5" r="1.5"/><circle cx="111.5" cy="78.5" r="1.5"/><circle cx="122.5" cy="78.5" r="1.5"/><circle cx="133.5" cy="78.5" r="1.5"/><circle cx="144.5" cy="78.5" r="1.5"/><circle cx="155.5" cy="78.5" r="1.5"/><circle cx="166.5" cy="78.5" r="1.5"/><circle cx="177.5" cy="78.5" r="1.5"/><circle cx="188.5" cy="78.5" r="1.5"/><circle cx="1.5" cy="89.5" r="1.5"/><circle cx="12.5" cy="89.5" r="1.5"/><circle cx="23.5" cy="89.5" r="1.5"/><circle cx="34.5" cy="89.5" r="1.5"/><circle cx="45.5" cy="89.5" r="1.5"/><circle cx="56.5" cy="89.5" r="1.5"/><circle cx="67.5" cy="89.5" r="1.5"/><circle cx="78.5" cy="89.5" r="1.5"/><circle cx="89.5" cy="89.5" r="1.5"/><circle cx="100.5" cy="89.5" r="1.5"/><circle cx="111.5" cy="89.5" r="1.5"/><circle cx="122.5" cy="89.5" r="1.5"/><circle cx="133.5" cy="89.5" r="1.5"/><circle cx="144.5" cy="89.5" r="1.5"/><circle cx="155.5" cy="89.5" r="1.5"/><circle cx="166.5" cy="89.5" r="1.5"/><circle cx="177.5" cy="89.5" r="1.5"/><circle cx="188.5" cy="89.5" r="1.5"/><circle cx="1.5" cy="100.5" r="1.5"/><circle cx="12.5" cy="100.5" r="1.5"/><circle cx="23.5" cy="100.5" r="1.5"/><circle cx="34.5" cy="100.5" r="1.5"/><circle cx="45.5" cy="100.5" r="1.5"/><circle cx="56.5" cy="100.5" r="1.5"/><circle cx="67.5" cy="100.5" r="1.5"/><circle cx="78.5" cy="100.5" r="1.5"/><circle cx="89.5" cy="100.5" r="1.5"/><circle cx="100.5" cy="100.5" r="1.5"/><circle cx="111.5" cy="100.5" r="1.5"/><circle cx="122.5" cy="100.5" r="1.5"/><circle cx="133.5" cy="100.5" r="1.5"/><circle cx="144.5" cy="100.5" r="1.5"/><circle cx="155.5" cy="100.5" r="1.5"/><circle cx="166.5" cy="100.5" r="1.5"/><circle cx="177.5" cy="100.5" r="1.5"/><circle cx="188.5" cy="100.5" r="1.5"/><circle cx="1.5" cy="111.5" r="1.5"/><circle cx="12.5" cy="111.5" r="1.5"/><circle cx="23.5" cy="111.5" r="1.5"/><circle cx="34.5" cy="111.5" r="1.5"/><circle cx="45.5" cy="111.5" r="1.5"/><circle cx="56.5" cy="111.5" r="1.5"/><circle cx="67.5" cy="111.5" r="1.5"/><circle cx="78.5" cy="111.5" r="1.5"/><circle cx="89.5" cy="111.5" r="1.5"/><circle cx="100.5" cy="111.5" r="1.5"/><circle cx="111.5" cy="111.5" r="1.5"/><circle cx="122.5" cy="111.5" r="1.5"/><circle cx="133.5" cy="111.5" r="1.5"/><circle cx="144.5" cy="111.5" r="1.5"/><circle cx="155.5" cy="111.5" r="1.5"/><circle cx="166.5" cy="111.5" r="1.5"/><circle cx="177.5" cy="111.5" r="1.5"/><circle cx="188.5" cy="111.5" r="1.5"/><circle cx="1.5" cy="122.5" r="1.5"/><circle cx="12.5" cy="122.5" r="1.5"/><circle cx="23.5" cy="122.5" r="1.5"/><circle cx="34.5" cy="122.5" r="1.5"/><circle cx="45.5" cy="122.5" r="1.5"/><circle cx="56.5" cy="122.5" r="1.5"/><circle cx="67.5" cy="122.5" r="1.5"/><circle cx="78.5" cy="122.5" r="1.5"/><circle cx="89.5" cy="122.5" r="1.5"/><circle cx="100.5" cy="122.5" r="1.5"/><circle cx="111.5" cy="122.5" r="1.5"/><circle cx="122.5" cy="122.5" r="1.5"/><circle cx="133.5" cy="122.5" r="1.5"/><circle cx="144.5" cy="122.5" r="1.5"/><circle cx="155.5" cy="122.5" r="1.5"/><circle cx="166.5" cy="122.5" r="1.5"/><circle cx="177.5" cy="122.5" r="1.5"/><circle cx="188.5" cy="122.5" r="1.5"/><circle cx="1.5" cy="133.5" r="1.5"/><circle cx="12.5" cy="133.5" r="1.5"/><circle cx="23.5" cy="133.5" r="1.5"/><circle cx="34.5" cy="133.5" r="1.5"/><circle cx="45.5" cy="133.5" r="1.5"/><circle cx="56.5" cy="133.5" r="1.5"/><circle cx="67.5" cy="133.5" r="1.5"/><circle cx="78.5" cy="133.5" r="1.5"/><circle cx="89.5" cy="133.5" r="1.5"/><circle cx="100.5" cy="133.5" r="1.5"/><circle cx="111.5" cy="133.5" r="1.5"/><circle cx="122.5" cy="133.5" r="1.5"/><circle cx="133.5" cy="133.5" r="1.5"/><circle cx="144.5" cy="133.5" r="1.5"/><circle cx="155.5" cy="133.5" r="1.5"/><circle cx="166.5" cy="133.5" r="1.5"/><circle cx="177.5" cy="133.5" r="1.5"/><circle cx="188.5" cy="133.5" r="1.5"/><circle cx="1.5" cy="144.5" r="1.5"/><circle cx="12.5" cy="144.5" r="1.5"/><circle cx="23.5" cy="144.5" r="1.5"/><circle cx="34.5" cy="144.5" r="1.5"/><circle cx="45.5" cy="144.5" r="1.5"/><circle cx="56.5" cy="144.5" r="1.5"/><circle cx="67.5" cy="144.5" r="1.5"/><circle cx="78.5" cy="144.5" r="1.5"/><circle cx="89.5" cy="144.5" r="1.5"/><circle cx="100.5" cy="144.5" r="1.5"/><circle cx="111.5" cy="144.5" r="1.5"/><circle cx="122.5" cy="144.5" r="1.5"/><circle cx="133.5" cy="144.5" r="1.5"/><circle cx="144.5" cy="144.5" r="1.5"/><circle cx="155.5" cy="144.5" r="1.5"/><circle cx="166.5" cy="144.5" r="1.5"/><circle cx="177.5" cy="144.5" r="1.5"/><circle cx="188.5" cy="144.5" r="1.5"/><circle cx="1.5" cy="155.5" r="1.5"/><circle cx="12.5" cy="155.5" r="1.5"/><circle cx="23.5" cy="155.5" r="1.5"/><circle cx="34.5" cy="155.5" r="1.5"/><circle cx="45.5" cy="155.5" r="1.5"/><circle cx="56.5" cy="155.5" r="1.5"/><circle cx="67.5" cy="155.5" r="1.5"/><circle cx="78.5" cy="155.5" r="1.5"/><circle cx="89.5" cy="155.5" r="1.5"/><circle cx="100.5" cy="155.5" r="1.5"/><circle cx="111.5" cy="155.5" r="1.5"/><circle cx="122.5" cy="155.5" r="1.5"/><circle cx="133.5" cy="155.5" r="1.5"/><circle cx="144.5" cy="155.5" r="1.5"/><circle cx="155.5" cy="155.5" r="1.5"/><circle cx="166.5" cy="155.5" r="1.5"/><circle cx="177.5" cy="155.5" r="1.5"/><circle cx="188.5" cy="155.5" r="1.5"/><circle cx="1.5" cy="166.5" r="1.5"/><circle cx="12.5" cy="166.5" r="1.5"/><circle cx="23.5" cy="166.5" r="1.5"/><circle cx="34.5" cy="166.5" r="1.5"/><circle cx="45.5" cy="166.5" r="1.5"/><circle cx="56.5" cy="166.5" r="1.5"/><circle cx="67.5" cy="166.5" r="1.5"/><circle cx="78.5" cy="166.5" r="1.5"/><circle cx="89.5" cy="166.5" r="1.5"/><circle cx="100.5" cy="166.5" r="1.5"/><circle cx="111.5" cy="166.5" r="1.5"/><circle cx="122.5" cy="166.5" r="1.5"/><circle cx="133.5" cy="166.5" r="1.5"/><circle cx="144.5" cy="166.5" r="1.5"/><circle cx="155.5" cy="166.5" r="1.5"/><circle cx="166.5" cy="166.5" r="1.5"/><circle cx="177.5" cy="166.5" r="1.5"/><circle cx="188.5" cy="166.5" r="1.5"/><circle cx="1.5" cy="177.5" r="1.5"/><circle cx="12.5" cy="177.5" r="1.5"/><circle cx="23.5" cy="177.5" r="1.5"/><circle cx="34.5" cy="177.5" r="1.5"/><circle cx="45.5" cy="177.5" r="1.5"/><circle cx="56.5" cy="177.5" r="1.5"/><circle cx="67.5" cy="177.5" r="1.5"/><circle cx="78.5" cy="177.5" r="1.5"/><circle cx="89.5" cy="177.5" r="1.5"/><circle cx="100.5" cy="177.5" r="1.5"/><circle cx="111.5" cy="177.5" r="1.5"/><circle cx="122.5" cy="177.5" r="1.5"/><circle cx="133.5" cy="177.5" r="1.5"/><circle cx="144.5" cy="177.5" r="1.5"/><circle cx="155.5" cy="177.5" r="1.5"/><circle cx="166.5" cy="177.5" r="1.5"/><circle cx="177.5" cy="177.5" r="1.5"/><circle cx="188.5" cy="177.5" r="1.5"/><circle cx="1.5" cy="188.5" r="1.5"/><circle cx="12.5" cy="188.5" r="1.5"/><circle cx="23.5" cy="188.5" r="1.5"/><circle cx="34.5" cy="188.5" r="1.5"/><circle cx="45.5" cy="188.5" r="1.5"/><circle cx="56.5" cy="188.5" r="1.5"/><circle cx="67.5" cy="188.5" r="1.5"/><circle cx="78.5" cy="188.5" r="1.5"/><circle cx="89.5" cy="188.5" r="1.5"/><circle cx="100.5" cy="188.5" r="1.5"/><circle cx="111.5" cy="188.5" r="1.5"/><circle cx="122.5" cy="188.5" r="1.5"/><circle cx="133.5" cy="188.5" r="1.5"/><circle cx="144.5" cy="188.5" r="1.5"/><circle cx="155.5" cy="188.5" r="1.5"/><circle cx="166.5" cy="188.5" r="1.5"/><circle cx="177.5" cy="188.5" r="1.5"/><circle cx="188.5" cy="188.5" r="1.5"/><circle cx="1.5" cy="199.5" r="1.5"/><circle cx="12.5" cy="199.5" r="1.5"/><circle cx="23.5" cy="199.5" r="1.5"/><circle cx="34.5" cy="199.5" r="1.5"/><circle cx="45.5" cy="199.5" r="1.5"/><circle cx="56.5" cy="199.5" r="1.5"/><circle cx="67.5" cy="199.5" r="1.5"/><circle cx="78.5" cy="199.5" r="1.5"/><circle cx="89.5" cy="199.5" r="1.5"/><circle cx="100.5" cy="199.5" r="1.5"/><circle cx="111.5" cy="199.5" r="1.5"/><circle cx="122.5" cy="199.5" r="1.5"/><circle cx="133.5" cy="199.5" r="1.5"/><circle cx="144.5" cy="199.5" r="1.5"/><circle cx="155.5" cy="199.5" r="1.5"/><circle cx="166.5" cy="199.5" r="1.5"/><circle cx="177.5" cy="199.5" r="1.5"/><circle cx="188.5" cy="199.5" r="1.5"/><circle cx="1.5" cy="210.5" r="1.5"/><circle cx="12.5" cy="210.5" r="1.5"/><circle cx="23.5" cy="210.5" r="1.5"/><circle cx="34.5" cy="210.5" r="1.5"/><circle cx="45.5" cy="210.5" r="1.5"/><circle cx="56.5" cy="210.5" r="1.5"/><circle cx="67.5" cy="210.5" r="1.5"/><circle cx="78.5" cy="210.5" r="1.5"/><circle cx="89.5" cy="210.5" r="1.5"/><circle cx="100.5" cy="210.5" r="1.5"/><circle cx="111.5" cy="210.5" r="1.5"/><circle cx="122.5" cy="210.5" r="1.5"/><circle cx="133.5" cy="210.5" r="1.5"/><circle cx="144.5" cy="210.5" r="1.5"/><circle cx="155.5" cy="210.5" r="1.5"/><circle cx="166.5" cy="210.5" r="1.5"/><circle cx="177.5" cy="210.5" r="1.5"/><circle cx="188.5" cy="210.5" r="1.5"/></g><defs><clipPath id="a"><path fill="#fff" d="M0 0h198v220H0z"/></clipPath></defs></svg>