<svg xmlns="http://www.w3.org/2000/svg" width="56" height="56" fill="none"><path fill="#D9D9D9" fill-rule="evenodd" d="M0 19.2C0 12.48 0 9.12 1.308 6.552a12 12 0 0 1 5.244-5.244C9.12 0 12.48 0 19.2 0h17.6c6.72 0 10.08 0 12.648 1.308a12 12 0 0 1 5.244 5.244C56 9.12 56 12.48 56 19.2v17.6l-.001 1.837c-.002.794-.003 1.19-.117 1.465a1.27 1.27 0 0 1-.47.615c-.236.18-.746.318-1.765.594a9.004 9.004 0 0 0-6.35 10.992c.327 1.236.49 1.854.39 2.235-.092.355-.27.616-.566.833-.318.232-.724.28-1.537.376C43.448 56 40.686 56 36.8 56H19.2c-6.72 0-10.08 0-12.648-1.308a12 12 0 0 1-5.244-5.244C0 46.88 0 43.52 0 36.8V19.2Z" clip-rule="evenodd"/></svg>